<svg version="1.2" xmlns="http://www.w3.org/2000/svg" viewBox="0 0 94 106" width="94" height="106">
	<title>vector pokeball pixelated-svg</title>
	<defs>
		<filter x="-50%" y="-50%" width="200%" height="200%" id="f1"> <feGaussianBlur stdDeviation="1.8"/> </filter>
		<linearGradient id="g1" x2="1" gradientUnits="userSpaceOnUse" gradientTransform="matrix(27.776,80.996,-80.996,27.776,33.411,12.197)">
			<stop offset="0" stop-color="#a30202"/>
			<stop offset=".415" stop-color="#d00121"/>
			<stop offset=".445" stop-color="#710114"/>
			<stop offset=".499" stop-color="#fefefe"/>
			<stop offset=".567" stop-color="#cbbebd"/>
			<stop offset=".594" stop-color="#ffffff"/>
			<stop offset=".939" stop-color="#ffffff"/>
			<stop offset="1" stop-color="#ffffff"/>
		</linearGradient>
		<linearGradient id="g2" x2="1" gradientUnits="userSpaceOnUse" gradientTransform="matrix(83.624,-30.193,19.624,54.352,5.639,52.108)">
			<stop offset="0" stop-color="#57000b"/>
			<stop offset="1" stop-color="#830017"/>
		</linearGradient>
		<filter x="-50%" y="-50%" width="200%" height="200%" id="f2"> <feGaussianBlur stdDeviation=".7"/> </filter>
		<filter x="-50%" y="-50%" width="200%" height="200%" id="f3"> <feGaussianBlur stdDeviation="1.2"/> </filter>
		<linearGradient id="g3" x2="1" gradientUnits="userSpaceOnUse" gradientTransform="matrix(10.577,32.105,-43.637,14.377,51.706,60.332)">
			<stop offset="0" stop-color="#ffffff" stop-opacity="0"/>
			<stop offset=".389" stop-color="#d5c9c9" stop-opacity="1"/>
			<stop offset="1" stop-color="#4e4542" stop-opacity="1"/>
		</linearGradient>
		<radialGradient id="g4" cx="0" cy="0" r="1" gradientUnits="userSpaceOnUse" gradientTransform="matrix(11.971,0,0,11.971,47.007,52.986)">
			<stop offset="0" stop-color="#ffffff" stop-opacity=".85"/>
			<stop offset=".672" stop-color="#cdcdcd" stop-opacity=".97"/>
			<stop offset="1" stop-color="#ffffff" stop-opacity="1"/>
		</radialGradient>
		<radialGradient id="g5" cx="0" cy="0" r="1" gradientUnits="userSpaceOnUse" gradientTransform="matrix(8.031,0,0,8.031,47.007,52.986)">
			<stop offset="0" stop-color="#ffffff" stop-opacity=".85"/>
			<stop offset="1" stop-color="#ffffff" stop-opacity="1"/>
		</radialGradient>
		<linearGradient id="g6" x2="1" gradientUnits="userSpaceOnUse" gradientTransform="matrix(20.744,2.576,-8.64,69.569,68.923,53.469)">
			<stop offset="0" stop-color="#ffffff" stop-opacity="0"/>
			<stop offset="1" stop-color="#ffffff" stop-opacity="1"/>
		</linearGradient>
		<filter x="-50%" y="-50%" width="200%" height="200%" id="f4"> <feGaussianBlur stdDeviation="1.6"/> </filter>
	</defs>
	<style>
		.s0 { opacity: .4;filter: url(#f1);fill: #000000;stroke: #000000;stroke-width: .5 } 
		.s1 { fill: #000000;stroke: #000000;stroke-width: .5 } 
		.s2 { fill: #000000 } 
		.s3 { fill: url(#g1);stroke: #000000;stroke-width: .5 } 
		.s4 { opacity: .5;fill: url(#g2) } 
		.s5 { opacity: 1;filter: url(#f2);fill: #ffffff } 
		.s6 { opacity: .9;filter: url(#f2);fill: #ffffff } 
		.s7 { opacity: .4;filter: url(#f3);fill: url(#g3) } 
		.s8 { fill: url(#g4) } 
		.s9 { fill: url(#g5) } 
		.s10 { opacity: .4;fill: url(#g6) } 
		.s11 { opacity: .7;filter: url(#f4);fill: #ffffff } 
	</style>
	<path id="path4462" class="s0" d="m46.9 7.2c-24.8-0.6-46.9 22.1-45.6 46.9-0.1 24.8 23.1 46.4 47.8 44.6 24.9-0.5 46-24.3 43.6-49.1-1.4-23.3-22.3-42.8-45.8-42.4z"/>
	<path id="path4458" class="s1" d="m46.9 8.9c-23.9-0.6-45.2 21.2-44 45.1 0 24 22.3 44.8 46.1 43 24.1-0.4 44.3-23.4 42-47.2-1.3-22.6-21.5-41.3-44.1-40.9z"/>
	<path id="path3338" class="s2" d="m47 95.7c-23.6 0-42.7-19.1-42.7-42.7 0-23.6 19.1-42.7 42.7-42.7 23.6 0 42.7 19.1 42.7 42.7 0 23.6-19.1 42.7-42.7 42.7z"/>
	<path id="circle3342" class="s3" d="m89.7 53c0 5.6-1.1 11.2-3.2 16.3-2.2 5.2-5.3 9.9-9.3 13.9-3.9 4-8.7 7.1-13.8 9.3-5.2 2.1-10.8 3.2-16.4 3.2-5.6 0-11.2-1.1-16.3-3.2-5.2-2.2-9.9-5.3-13.9-9.3-4-4-7.1-8.7-9.3-13.9-2.1-5.1-3.2-10.7-3.2-16.3 0-5.6 1.1-11.2 3.2-16.4 2.2-5.2 5.3-9.9 9.3-13.8 4-4 8.7-7.1 13.9-9.3 5.1-2.1 10.7-3.2 16.3-3.2 5.6 0 11.2 1.1 16.4 3.2 5.1 2.2 9.9 5.3 13.8 9.3 4 3.9 7.1 8.6 9.3 13.8 2.1 5.2 3.2 10.8 3.2 16.4z"/>
	<path id="path4168" class="s4" d="m47 10.3c-23.6 0-42.7 19.1-42.7 42.7 0 8.2 2.4 16.3 6.9 23.2-4.7-7.2-3.3-10.5-3.3-16 0-22.9 18.6-41.4 41.4-41.4 17.3 0 36.9 10 39.8 26.5 0.4 1.9 0.1 3.8 0.6 5.9-1-22.9-19.8-40.9-42.7-40.9z"/>
	<path id="path4189" fill-rule="evenodd" class="s5" d="m41.3 12.1c-0.8-0.3-1.8-0.2-2.7-0.1-3.2 0.4-5.7 1.1-6.8 2.4-0.3 0.9-0.3 3.9 0.7 3.7 3-0.3 4.6 0.6 6.7 0 1.2-0.4 2.6-1 3.2-2.1 0.5-0.9 0.6-2.1 0.2-3-0.2-0.5-0.8-0.8-1.3-0.9z"/>
	<path id="path4191" fill-rule="evenodd" class="s6" d="m48.7 12.7c3.2 0.4 15.4 4.1 20.4 7.6 0.6 0.1 0.9-1.8 0.6-2-4.7-2.6-10.1-5.5-15.9-6.2-1.7-0.2-3.1-0.4-5.1 0.6z"/>
	<path id="path4349" class="s7" d="m79.4 81.4c-3.7 4.2-8.2 7.7-13.2 10.2-5 2.4-10.5 3.9-16.1 4.3-5.6 0.3-11.2-0.4-16.5-2.2-5.4-1.8-10.3-4.6-14.5-8.3q-2.3-2.1-4.3-4.4-2-2.3-3.6-4.9-1.7-2.6-2.9-5.4-1.3-2.8-2.1-5.8 0.9 1.9 2 3.6 1 1.8 2.3 3.4 1.2 1.6 2.6 3.1 1.4 1.5 3 2.9c4 3.6 8.8 6.3 14 8.1 5.1 1.7 10.6 2.4 16 2.1 5.4-0.4 10.7-1.8 15.6-4.2 4.9-2.4 9.2-5.8 12.8-9.9 3.1-3.5 5.5-7.5 7.3-11.8 1.7-4.4 2.7-8.9 2.9-13.6 0.2-4.7-0.4-9.3-1.7-13.8-1.4-4.5-3.5-8.7-6.2-12.5 3.9 3.8 7.1 8.3 9.4 13.3 2.2 4.9 3.5 10.3 3.7 15.7 0.3 5.5-0.5 10.9-2.3 16.1-1.8 5.1-4.6 9.9-8.2 14z"/>
	<g id="g4405">
		<path id="rect4156" class="s2" d="m5 61.5l80.6-27.2c1.5 3.2 3 6.4 3.4 10.2l-80.5 27.1c-1.6-3.4-2.7-6.8-3.5-10.1z"/>
		<path id="circle3340" class="s2" d="m47 67.7c-8.2 0-14.8-6.6-14.8-14.7 0-8.2 6.6-14.8 14.8-14.8 8.2 0 14.8 6.6 14.8 14.8 0 8.1-6.6 14.7-14.8 14.7z"/>
		<path id="circle4162" class="s8" d="m47 65c-6.6 0-12-5.4-12-12 0-6.6 5.4-12 12-12 6.6 0 12 5.4 12 12 0 6.6-5.4 12-12 12z"/>
		<path id="circle4164" class="s2" d="m47 61.8c-4.9 0-8.8-3.9-8.8-8.8 0-4.9 3.9-8.9 8.8-8.9 4.9 0 8.9 4 8.9 8.9 0 4.9-4 8.8-8.9 8.8z"/>
		<path id="circle4166" class="s9" d="m47 61c-4.4 0-8-3.6-8-8 0-4.5 3.6-8 8-8 4.4 0 8 3.5 8 8 0 4.4-3.6 8-8 8z"/>
	</g>
	<path id="path4416" class="s10" d="m72.1 18.6l-7 72.9c3.3-1.5 6.4-3.5 9.2-5.9 2.8-2.4 5.3-5.1 7.4-8.1 2.1-3 3.9-6.3 5.1-9.7 1.3-3.5 2.2-7.1 2.5-10.7 0.4-3.7 0.2-7.4-0.4-11-0.6-3.6-1.6-7.2-3.1-10.5-1.5-3.4-3.5-6.5-5.8-9.4-2.3-2.9-4.9-5.4-7.9-7.6z"/>
	<path id="path4658" fill-rule="evenodd" class="s11" d="m48.7 91c3.2-0.3 15.4-4 20.4-7.5 0.6-0.1 0.9 1.7 0.6 2-4.7 2.5-10.1 5.5-15.9 6.2-1.7 0.2-3.1 0.4-5.1-0.7z"/>
</svg>